# xmcd
#
# Track frame offsets:
#	150
#	19676
#	36889
#	58453
#	74627
#	91498
#	106384
#	121947
#	138032
#	153286
#	166117
#	181247
#	193089
#	212294
#	229240
#
# Disc length: 3254 seconds
#
# Revision: 1
# Processed by: cddbd v1.5.2PL0 Copyright (c) Steve Scherf et al.
# Submitted via: audiograbber 1.83.01
#
DISCID=ca0cb40f
DTITLE=Kenny Rogers - The Collection CD 2
DYEAR=1900
DGENRE=Country
TTITLE0=She believes in me
TTITLE1=Endless love
TTITLE2=Have I told youLately that I love  you
TTITLE3=The wind Beneath my Wings
TTITLE4=When a Man lovesAWman
TTITLE5=Czyyy
TTITLE6=When IIFallnLov
TTITLE7=Evergreen
TTITLE8=Unforgettable
TTITLE9=As TimeGoes By
TTITLE10=I can´t Help falling in love
TTITLE11=Alaws
TTITLE12=I only have eyes for you
TTITLE13=You Decorated My life
TTITLE14=Misty
EXTD=
EXTT0=
EXTT1=
EXTT2=
EXTT3=
EXTT4=
EXTT5=
EXTT6=
EXTT7=
EXTT8=
EXTT9=
EXTT10=
EXTT11=
EXTT12=
EXTT13=
EXTT14=
PLAYORDER=
